<svg id="visual" viewBox="0 0 900 600" width="900" height="600" xmlns="http://www.w3.org/2000/svg" xmlns:xlink="http://www.w3.org/1999/xlink" version="1.1"><rect x="0" y="0" width="900" height="600" fill="#001220"></rect><path d="M0 381L21.5 388.2C43 395.3 86 409.7 128.8 411.5C171.7 413.3 214.3 402.7 257.2 392.2C300 381.7 343 371.3 385.8 374.3C428.7 377.3 471.3 393.7 514.2 407.5C557 421.3 600 432.7 642.8 435.2C685.7 437.7 728.3 431.3 771.2 423.5C814 415.7 857 406.3 878.5 401.7L900 397L900 601L878.5 601C857 601 814 601 771.2 601C728.3 601 685.7 601 642.8 601C600 601 557 601 514.2 601C471.3 601 428.7 601 385.8 601C343 601 300 601 257.2 601C214.3 601 171.7 601 128.8 601C86 601 43 601 21.5 601L0 601Z" fill="#fa7268"></path><path d="M0 441L21.5 442C43 443 86 445 128.8 442.2C171.7 439.3 214.3 431.7 257.2 434.7C300 437.7 343 451.3 385.8 446.7C428.7 442 471.3 419 514.2 417.2C557 415.3 600 434.7 642.8 440.3C685.7 446 728.3 438 771.2 434.3C814 430.7 857 431.3 878.5 431.7L900 432L900 601L878.5 601C857 601 814 601 771.2 601C728.3 601 685.7 601 642.8 601C600 601 557 601 514.2 601C471.3 601 428.7 601 385.8 601C343 601 300 601 257.2 601C214.3 601 171.7 601 128.8 601C86 601 43 601 21.5 601L0 601Z" fill="#ef5f67"></path><path d="M0 476L21.5 473.7C43 471.3 86 466.7 128.8 472.2C171.7 477.7 214.3 493.3 257.2 500.5C300 507.7 343 506.3 385.8 502.3C428.7 498.3 471.3 491.7 514.2 488.3C557 485 600 485 642.8 489.2C685.7 493.3 728.3 501.7 771.2 503.7C814 505.7 857 501.3 878.5 499.2L900 497L900 601L878.5 601C857 601 814 601 771.2 601C728.3 601 685.7 601 642.8 601C600 601 557 601 514.2 601C471.3 601 428.7 601 385.8 601C343 601 300 601 257.2 601C214.3 601 171.7 601 128.8 601C86 601 43 601 21.5 601L0 601Z" fill="#e34c67"></path><path d="M0 488L21.5 490.8C43 493.7 86 499.3 128.8 501.3C171.7 503.3 214.3 501.7 257.2 507.2C300 512.7 343 525.3 385.8 527.5C428.7 529.7 471.3 521.3 514.2 514.5C557 507.7 600 502.3 642.8 500.8C685.7 499.3 728.3 501.7 771.2 499.3C814 497 857 490 878.5 486.5L900 483L900 601L878.5 601C857 601 814 601 771.2 601C728.3 601 685.7 601 642.8 601C600 601 557 601 514.2 601C471.3 601 428.7 601 385.8 601C343 601 300 601 257.2 601C214.3 601 171.7 601 128.8 601C86 601 43 601 21.5 601L0 601Z" fill="#d53867"></path><path d="M0 568L21.5 566.8C43 565.7 86 563.3 128.8 557.3C171.7 551.3 214.3 541.7 257.2 539.2C300 536.7 343 541.3 385.8 548C428.7 554.7 471.3 563.3 514.2 564C557 564.7 600 557.3 642.8 550.7C685.7 544 728.3 538 771.2 539.2C814 540.3 857 548.7 878.5 552.8L900 557L900 601L878.5 601C857 601 814 601 771.2 601C728.3 601 685.7 601 642.8 601C600 601 557 601 514.2 601C471.3 601 428.7 601 385.8 601C343 601 300 601 257.2 601C214.3 601 171.7 601 128.8 601C86 601 43 601 21.5 601L0 601Z" fill="#c62368"></path></svg>