<svg id="visual" viewBox="0 0 900 600" width="900" height="600" xmlns="http://www.w3.org/2000/svg" xmlns:xlink="http://www.w3.org/1999/xlink" version="1.1"><rect x="0" y="0" width="900" height="600" fill="#001220"></rect><path d="M0 428L21.5 426C43 424 86 420 128.8 409.2C171.7 398.3 214.3 380.7 257.2 386.2C300 391.7 343 420.3 385.8 430.8C428.7 441.3 471.3 433.7 514.2 417.8C557 402 600 378 642.8 381C685.7 384 728.3 414 771.2 424.7C814 435.3 857 426.7 878.5 422.3L900 418L900 601L878.5 601C857 601 814 601 771.2 601C728.3 601 685.7 601 642.8 601C600 601 557 601 514.2 601C471.3 601 428.7 601 385.8 601C343 601 300 601 257.2 601C214.3 601 171.7 601 128.8 601C86 601 43 601 21.5 601L0 601Z" fill="#fa7268"></path><path d="M0 399L21.5 398C43 397 86 395 128.8 397.7C171.7 400.3 214.3 407.7 257.2 411.5C300 415.3 343 415.7 385.8 420C428.7 424.3 471.3 432.7 514.2 432.2C557 431.7 600 422.3 642.8 415.2C685.7 408 728.3 403 771.2 400.3C814 397.7 857 397.3 878.5 397.2L900 397L900 601L878.5 601C857 601 814 601 771.2 601C728.3 601 685.7 601 642.8 601C600 601 557 601 514.2 601C471.3 601 428.7 601 385.8 601C343 601 300 601 257.2 601C214.3 601 171.7 601 128.8 601C86 601 43 601 21.5 601L0 601Z" fill="#ef5f67"></path><path d="M0 439L21.5 448.8C43 458.7 86 478.3 128.8 483C171.7 487.7 214.3 477.3 257.2 475C300 472.7 343 478.3 385.8 478.5C428.7 478.7 471.3 473.3 514.2 469.5C557 465.7 600 463.3 642.8 458.5C685.7 453.7 728.3 446.3 771.2 454.7C814 463 857 487 878.5 499L900 511L900 601L878.5 601C857 601 814 601 771.2 601C728.3 601 685.7 601 642.8 601C600 601 557 601 514.2 601C471.3 601 428.7 601 385.8 601C343 601 300 601 257.2 601C214.3 601 171.7 601 128.8 601C86 601 43 601 21.5 601L0 601Z" fill="#e34c67"></path><path d="M0 537L21.5 536.8C43 536.7 86 536.3 128.8 527.8C171.7 519.3 214.3 502.7 257.2 498.7C300 494.7 343 503.3 385.8 507.3C428.7 511.3 471.3 510.7 514.2 508C557 505.3 600 500.7 642.8 501.8C685.7 503 728.3 510 771.2 512.2C814 514.3 857 511.7 878.5 510.3L900 509L900 601L878.5 601C857 601 814 601 771.2 601C728.3 601 685.7 601 642.8 601C600 601 557 601 514.2 601C471.3 601 428.7 601 385.8 601C343 601 300 601 257.2 601C214.3 601 171.7 601 128.8 601C86 601 43 601 21.5 601L0 601Z" fill="#d53867"></path><path d="M0 542L21.5 545C43 548 86 554 128.8 553.7C171.7 553.3 214.3 546.7 257.2 546C300 545.3 343 550.7 385.8 549.8C428.7 549 471.3 542 514.2 538C557 534 600 533 642.8 537.2C685.7 541.3 728.3 550.7 771.2 556.5C814 562.3 857 564.7 878.5 565.8L900 567L900 601L878.5 601C857 601 814 601 771.2 601C728.3 601 685.7 601 642.8 601C600 601 557 601 514.2 601C471.3 601 428.7 601 385.8 601C343 601 300 601 257.2 601C214.3 601 171.7 601 128.8 601C86 601 43 601 21.5 601L0 601Z" fill="#c62368"></path></svg>