<svg id="visual" viewBox="0 0 900 600" width="900" height="600" xmlns="http://www.w3.org/2000/svg" xmlns:xlink="http://www.w3.org/1999/xlink" version="1.1"><path d="M0 193L13.7 185C27.3 177 54.7 161 82 171C109.3 181 136.7 217 163.8 242C191 267 218 281 245.2 256C272.3 231 299.7 167 327 159C354.3 151 381.7 199 409 220C436.3 241 463.7 235 491 211C518.3 187 545.7 145 573 129C600.3 113 627.7 123 654.8 120C682 117 709 101 736.2 106C763.3 111 790.7 137 818 149C845.3 161 872.7 159 886.3 158L900 157L900 0L886.3 0C872.7 0 845.3 0 818 0C790.7 0 763.3 0 736.2 0C709 0 682 0 654.8 0C627.7 0 600.3 0 573 0C545.7 0 518.3 0 491 0C463.7 0 436.3 0 409 0C381.7 0 354.3 0 327 0C299.7 0 272.3 0 245.2 0C218 0 191 0 163.8 0C136.7 0 109.3 0 82 0C54.7 0 27.3 0 13.7 0L0 0Z" fill="#6198ff"></path><path d="M0 283L13.7 290C27.3 297 54.7 311 82 320C109.3 329 136.7 333 163.8 345C191 357 218 377 245.2 375C272.3 373 299.7 349 327 342C354.3 335 381.7 345 409 341C436.3 337 463.7 319 491 316C518.3 313 545.7 325 573 317C600.3 309 627.7 281 654.8 270C682 259 709 265 736.2 286C763.3 307 790.7 343 818 358C845.3 373 872.7 367 886.3 364L900 361L900 155L886.3 156C872.7 157 845.3 159 818 147C790.7 135 763.3 109 736.2 104C709 99 682 115 654.8 118C627.7 121 600.3 111 573 127C545.7 143 518.3 185 491 209C463.7 233 436.3 239 409 218C381.7 197 354.3 149 327 157C299.7 165 272.3 229 245.2 254C218 279 191 265 163.8 240C136.7 215 109.3 179 82 169C54.7 159 27.3 175 13.7 183L0 191Z" fill="#3c80ff"></path><path d="M0 379L13.7 383C27.3 387 54.7 395 82 401C109.3 407 136.7 411 163.8 416C191 421 218 427 245.2 428C272.3 429 299.7 425 327 426C354.3 427 381.7 433 409 427C436.3 421 463.7 403 491 401C518.3 399 545.7 413 573 408C600.3 403 627.7 379 654.8 369C682 359 709 363 736.2 373C763.3 383 790.7 399 818 406C845.3 413 872.7 411 886.3 410L900 409L900 359L886.3 362C872.7 365 845.3 371 818 356C790.7 341 763.3 305 736.2 284C709 263 682 257 654.8 268C627.7 279 600.3 307 573 315C545.7 323 518.3 311 491 314C463.7 317 436.3 335 409 339C381.7 343 354.3 333 327 340C299.7 347 272.3 371 245.2 373C218 375 191 355 163.8 343C136.7 331 109.3 327 82 318C54.7 309 27.3 295 13.7 288L0 281Z" fill="#0066ff"></path><path d="M0 463L13.7 462C27.3 461 54.7 459 82 470C109.3 481 136.7 505 163.8 514C191 523 218 517 245.2 514C272.3 511 299.7 511 327 512C354.3 513 381.7 515 409 507C436.3 499 463.7 481 491 478C518.3 475 545.7 487 573 487C600.3 487 627.7 475 654.8 471C682 467 709 471 736.2 481C763.3 491 790.7 507 818 505C845.3 503 872.7 483 886.3 473L900 463L900 407L886.3 408C872.7 409 845.3 411 818 404C790.7 397 763.3 381 736.2 371C709 361 682 357 654.8 367C627.7 377 600.3 401 573 406C545.7 411 518.3 397 491 399C463.7 401 436.3 419 409 425C381.7 431 354.3 425 327 424C299.7 423 272.3 427 245.2 426C218 425 191 419 163.8 414C136.7 409 109.3 405 82 399C54.7 393 27.3 385 13.7 381L0 377Z" fill="#0059dd"></path><path d="M0 601L13.7 601C27.3 601 54.7 601 82 601C109.3 601 136.7 601 163.8 601C191 601 218 601 245.2 601C272.3 601 299.7 601 327 601C354.3 601 381.7 601 409 601C436.3 601 463.7 601 491 601C518.3 601 545.7 601 573 601C600.3 601 627.7 601 654.8 601C682 601 709 601 736.2 601C763.3 601 790.7 601 818 601C845.3 601 872.7 601 886.3 601L900 601L900 461L886.3 471C872.7 481 845.3 501 818 503C790.7 505 763.3 489 736.2 479C709 469 682 465 654.8 469C627.7 473 600.3 485 573 485C545.7 485 518.3 473 491 476C463.7 479 436.3 497 409 505C381.7 513 354.3 511 327 510C299.7 509 272.3 509 245.2 512C218 515 191 521 163.8 512C136.7 503 109.3 479 82 468C54.7 457 27.3 459 13.7 460L0 461Z" fill="#004cbb"></path></svg>