<svg id="visual" viewBox="0 0 900 600" width="900" height="600" xmlns="http://www.w3.org/2000/svg" xmlns:xlink="http://www.w3.org/1999/xlink" version="1.1"><path d="M0 43L13.7 53C27.3 63 54.7 83 82 89C109.3 95 136.7 87 163.8 77C191 67 218 55 245.2 53C272.3 51 299.7 59 327 66C354.3 73 381.7 79 409 77C436.3 75 463.7 65 491 64C518.3 63 545.7 71 573 69C600.3 67 627.7 55 654.8 58C682 61 709 79 736.2 84C763.3 89 790.7 81 818 77C845.3 73 872.7 73 886.3 73L900 73L900 0L886.3 0C872.7 0 845.3 0 818 0C790.7 0 763.3 0 736.2 0C709 0 682 0 654.8 0C627.7 0 600.3 0 573 0C545.7 0 518.3 0 491 0C463.7 0 436.3 0 409 0C381.7 0 354.3 0 327 0C299.7 0 272.3 0 245.2 0C218 0 191 0 163.8 0C136.7 0 109.3 0 82 0C54.7 0 27.3 0 13.7 0L0 0Z" fill="#6198ff"></path><path d="M0 289L13.7 294C27.3 299 54.7 309 82 291C109.3 273 136.7 227 163.8 214C191 201 218 221 245.2 228C272.3 235 299.7 229 327 233C354.3 237 381.7 251 409 251C436.3 251 463.7 237 491 238C518.3 239 545.7 255 573 255C600.3 255 627.7 239 654.8 244C682 249 709 275 736.2 269C763.3 263 790.7 225 818 204C845.3 183 872.7 179 886.3 177L900 175L900 71L886.3 71C872.7 71 845.3 71 818 75C790.7 79 763.3 87 736.2 82C709 77 682 59 654.8 56C627.7 53 600.3 65 573 67C545.7 69 518.3 61 491 62C463.7 63 436.3 73 409 75C381.7 77 354.3 71 327 64C299.7 57 272.3 49 245.2 51C218 53 191 65 163.8 75C136.7 85 109.3 93 82 87C54.7 81 27.3 61 13.7 51L0 41Z" fill="#3c80ff"></path><path d="M0 421L13.7 418C27.3 415 54.7 409 82 416C109.3 423 136.7 443 163.8 455C191 467 218 471 245.2 470C272.3 469 299.7 463 327 448C354.3 433 381.7 409 409 390C436.3 371 463.7 357 491 351C518.3 345 545.7 347 573 349C600.3 351 627.7 353 654.8 361C682 369 709 383 736.2 399C763.3 415 790.7 433 818 441C845.3 449 872.7 447 886.3 446L900 445L900 173L886.3 175C872.7 177 845.3 181 818 202C790.7 223 763.3 261 736.2 267C709 273 682 247 654.8 242C627.7 237 600.3 253 573 253C545.7 253 518.3 237 491 236C463.7 235 436.3 249 409 249C381.7 249 354.3 235 327 231C299.7 227 272.3 233 245.2 226C218 219 191 199 163.8 212C136.7 225 109.3 271 82 289C54.7 307 27.3 297 13.7 292L0 287Z" fill="#0066ff"></path><path d="M0 553L13.7 547C27.3 541 54.7 529 82 521C109.3 513 136.7 509 163.8 512C191 515 218 525 245.2 524C272.3 523 299.7 511 327 494C354.3 477 381.7 455 409 446C436.3 437 463.7 441 491 446C518.3 451 545.7 457 573 457C600.3 457 627.7 451 654.8 452C682 453 709 461 736.2 477C763.3 493 790.7 517 818 524C845.3 531 872.7 521 886.3 516L900 511L900 443L886.3 444C872.7 445 845.3 447 818 439C790.7 431 763.3 413 736.2 397C709 381 682 367 654.8 359C627.7 351 600.3 349 573 347C545.7 345 518.3 343 491 349C463.7 355 436.3 369 409 388C381.7 407 354.3 431 327 446C299.7 461 272.3 467 245.2 468C218 469 191 465 163.8 453C136.7 441 109.3 421 82 414C54.7 407 27.3 413 13.7 416L0 419Z" fill="#0059dd"></path><path d="M0 601L13.7 601C27.3 601 54.7 601 82 601C109.3 601 136.7 601 163.8 601C191 601 218 601 245.2 601C272.3 601 299.7 601 327 601C354.3 601 381.7 601 409 601C436.3 601 463.7 601 491 601C518.3 601 545.7 601 573 601C600.3 601 627.7 601 654.8 601C682 601 709 601 736.2 601C763.3 601 790.7 601 818 601C845.3 601 872.7 601 886.3 601L900 601L900 509L886.3 514C872.7 519 845.3 529 818 522C790.7 515 763.3 491 736.2 475C709 459 682 451 654.8 450C627.7 449 600.3 455 573 455C545.7 455 518.3 449 491 444C463.7 439 436.3 435 409 444C381.7 453 354.3 475 327 492C299.7 509 272.3 521 245.2 522C218 523 191 513 163.8 510C136.7 507 109.3 511 82 519C54.7 527 27.3 539 13.7 545L0 551Z" fill="#004cbb"></path></svg>