<svg id="visual" viewBox="0 0 900 600" width="900" height="600" xmlns="http://www.w3.org/2000/svg" xmlns:xlink="http://www.w3.org/1999/xlink" version="1.1"><path d="M0 103L13.7 103C27.3 103 54.7 103 82 101C109.3 99 136.7 95 163.8 104C191 113 218 135 245.2 133C272.3 131 299.7 105 327 99C354.3 93 381.7 107 409 107C436.3 107 463.7 93 491 95C518.3 97 545.7 115 573 123C600.3 131 627.7 129 654.8 135C682 141 709 155 736.2 155C763.3 155 790.7 141 818 139C845.3 137 872.7 147 886.3 152L900 157L900 0L886.3 0C872.7 0 845.3 0 818 0C790.7 0 763.3 0 736.2 0C709 0 682 0 654.8 0C627.7 0 600.3 0 573 0C545.7 0 518.3 0 491 0C463.7 0 436.3 0 409 0C381.7 0 354.3 0 327 0C299.7 0 272.3 0 245.2 0C218 0 191 0 163.8 0C136.7 0 109.3 0 82 0C54.7 0 27.3 0 13.7 0L0 0Z" fill="#6198ff"></path><path d="M0 283L13.7 268C27.3 253 54.7 223 82 228C109.3 233 136.7 273 163.8 301C191 329 218 345 245.2 337C272.3 329 299.7 297 327 279C354.3 261 381.7 257 409 274C436.3 291 463.7 329 491 330C518.3 331 545.7 295 573 276C600.3 257 627.7 255 654.8 267C682 279 709 305 736.2 312C763.3 319 790.7 307 818 310C845.3 313 872.7 331 886.3 340L900 349L900 155L886.3 150C872.7 145 845.3 135 818 137C790.7 139 763.3 153 736.2 153C709 153 682 139 654.8 133C627.7 127 600.3 129 573 121C545.7 113 518.3 95 491 93C463.7 91 436.3 105 409 105C381.7 105 354.3 91 327 97C299.7 103 272.3 129 245.2 131C218 133 191 111 163.8 102C136.7 93 109.3 97 82 99C54.7 101 27.3 101 13.7 101L0 101Z" fill="#3c80ff"></path><path d="M0 367L13.7 351C27.3 335 54.7 303 82 303C109.3 303 136.7 335 163.8 360C191 385 218 403 245.2 402C272.3 401 299.7 381 327 366C354.3 351 381.7 341 409 356C436.3 371 463.7 411 491 411C518.3 411 545.7 371 573 350C600.3 329 627.7 327 654.8 341C682 355 709 385 736.2 399C763.3 413 790.7 411 818 418C845.3 425 872.7 441 886.3 449L900 457L900 347L886.3 338C872.7 329 845.3 311 818 308C790.7 305 763.3 317 736.2 310C709 303 682 277 654.8 265C627.7 253 600.3 255 573 274C545.7 293 518.3 329 491 328C463.7 327 436.3 289 409 272C381.7 255 354.3 259 327 277C299.7 295 272.3 327 245.2 335C218 343 191 327 163.8 299C136.7 271 109.3 231 82 226C54.7 221 27.3 251 13.7 266L0 281Z" fill="#0066ff"></path><path d="M0 535L13.7 534C27.3 533 54.7 531 82 532C109.3 533 136.7 537 163.8 540C191 543 218 545 245.2 538C272.3 531 299.7 515 327 511C354.3 507 381.7 515 409 525C436.3 535 463.7 547 491 554C518.3 561 545.7 563 573 556C600.3 549 627.7 533 654.8 533C682 533 709 549 736.2 548C763.3 547 790.7 529 818 529C845.3 529 872.7 547 886.3 556L900 565L900 455L886.3 447C872.7 439 845.3 423 818 416C790.7 409 763.3 411 736.2 397C709 383 682 353 654.8 339C627.7 325 600.3 327 573 348C545.7 369 518.3 409 491 409C463.7 409 436.3 369 409 354C381.7 339 354.3 349 327 364C299.7 379 272.3 399 245.2 400C218 401 191 383 163.8 358C136.7 333 109.3 301 82 301C54.7 301 27.3 333 13.7 349L0 365Z" fill="#0059dd"></path><path d="M0 601L13.7 601C27.3 601 54.7 601 82 601C109.3 601 136.7 601 163.8 601C191 601 218 601 245.2 601C272.3 601 299.7 601 327 601C354.3 601 381.7 601 409 601C436.3 601 463.7 601 491 601C518.3 601 545.7 601 573 601C600.3 601 627.7 601 654.8 601C682 601 709 601 736.2 601C763.3 601 790.7 601 818 601C845.3 601 872.7 601 886.3 601L900 601L900 563L886.3 554C872.7 545 845.3 527 818 527C790.7 527 763.3 545 736.2 546C709 547 682 531 654.8 531C627.7 531 600.3 547 573 554C545.7 561 518.3 559 491 552C463.7 545 436.3 533 409 523C381.7 513 354.3 505 327 509C299.7 513 272.3 529 245.2 536C218 543 191 541 163.8 538C136.7 535 109.3 531 82 530C54.7 529 27.3 531 13.7 532L0 533Z" fill="#004cbb"></path></svg>