<svg id="visual" viewBox="0 0 900 600" width="900" height="600" xmlns="http://www.w3.org/2000/svg" xmlns:xlink="http://www.w3.org/1999/xlink" version="1.1"><rect x="0" y="0" width="900" height="600" fill="#002233"></rect><path d="M0 180L21.5 171.2C43 162.3 86 144.7 128.8 137.8C171.7 131 214.3 135 257.2 147C300 159 343 179 385.8 187.8C428.7 196.7 471.3 194.3 514.2 181.8C557 169.3 600 146.7 642.8 139C685.7 131.3 728.3 138.7 771.2 141C814 143.3 857 140.7 878.5 139.3L900 138L900 0L878.5 0C857 0 814 0 771.2 0C728.3 0 685.7 0 642.8 0C600 0 557 0 514.2 0C471.3 0 428.7 0 385.8 0C343 0 300 0 257.2 0C214.3 0 171.7 0 128.8 0C86 0 43 0 21.5 0L0 0Z" fill="#0066FF" stroke-linecap="round" stroke-linejoin="miter"></path></svg>