<svg id="visual" viewBox="0 0 900 600" width="900" height="600" xmlns="http://www.w3.org/2000/svg" xmlns:xlink="http://www.w3.org/1999/xlink" version="1.1"><rect x="0" y="0" width="900" height="600" fill="#002233"></rect><path d="M0 211L21.5 192.3C43 173.7 86 136.3 128.8 124.5C171.7 112.7 214.3 126.3 257.2 142.2C300 158 343 176 385.8 177.3C428.7 178.7 471.3 163.3 514.2 149.3C557 135.3 600 122.7 642.8 120.7C685.7 118.7 728.3 127.3 771.2 143.2C814 159 857 182 878.5 193.5L900 205L900 0L878.5 0C857 0 814 0 771.2 0C728.3 0 685.7 0 642.8 0C600 0 557 0 514.2 0C471.3 0 428.7 0 385.8 0C343 0 300 0 257.2 0C214.3 0 171.7 0 128.8 0C86 0 43 0 21.5 0L0 0Z" fill="#0066FF" stroke-linecap="round" stroke-linejoin="miter"></path></svg>